<?xml version="1.0" encoding="UTF-8" standalone="no"?>
<!-- Generator: Adobe Illustrator 18.1.1, SVG Export Plug-In . SVG Version: 6.00 Build 0)  -->

<svg
   version="1.1"
   x="0px"
   y="0px"
   viewBox="0 0 512 512"
   enable-background="new 0 0 512 512"
   xml:space="preserve"
   id="svg4"
   sodipodi:docname="Fxemoji_u1F4EB.svg"
   inkscape:version="1.3.2 (091e20e, 2023-11-25, custom)"
   inkscape:export-filename="icon.png"
   inkscape:export-xdpi="48"
   inkscape:export-ydpi="48"
   xmlns:inkscape="http://www.inkscape.org/namespaces/inkscape"
   xmlns:sodipodi="http://sodipodi.sourceforge.net/DTD/sodipodi-0.dtd"
   xmlns="http://www.w3.org/2000/svg"
   xmlns:svg="http://www.w3.org/2000/svg"><defs
   id="defs4">
	

	

	

	
</defs><sodipodi:namedview
   id="namedview4"
   pagecolor="#ffffff"
   bordercolor="#000000"
   borderopacity="0.25"
   inkscape:showpageshadow="2"
   inkscape:pageopacity="0.0"
   inkscape:pagecheckerboard="0"
   inkscape:deskcolor="#d1d1d1"
   inkscape:zoom="1"
   inkscape:cx="262.5"
   inkscape:cy="256.5"
   inkscape:window-width="1920"
   inkscape:window-height="1027"
   inkscape:window-x="-8"
   inkscape:window-y="-8"
   inkscape:window-maximized="1"
   inkscape:current-layer="svg4" />


<path
   style="fill:#050505;fill-opacity:1;stroke-width:0.769002"
   d="m 82.442399,278.22061 -2.166084,-1.64482 0.0069,-67.20975 c 0.0047,-39.27011 0.364876,-69.57758 0.867547,-72.90571 1.344452,-8.9015 4.053917,-15.74337 9.686185,-24.45929 11.045433,-17.092797 28.316323,-29.20227 51.908113,-36.395361 24.00933,-7.320412 55.21846,-6.400696 78.11609,2.302039 25.39737,9.652843 44.57249,27.617602 52.0294,48.745302 1.91258,5.41898 1.92568,5.88482 2.19136,77.9745 0.26564,72.07252 0.2562,72.53137 -1.52039,73.88042 -1.77279,1.34619 -2.56772,1.3575 -95.37054,1.3575 H 84.608242 Z"
   id="path5" /><path
   fill="#bcc8cc"
   d="m 132.62975,485.35644 c 54.12488,0.002 105.93829,-33.20918 115.72819,-74.17847 l 31.137,-130.30414 c 0.63359,-2.65149 -1.69304,-4.80157 -5.19594,-4.80168 l -183.31735,-0.006 c -3.5029,-1.1e-4 -6.85704,2.14979 -7.49063,4.80128 L 52.353914,411.17157 c -9.789871,40.96929 26.150827,74.1829 80.275796,74.18459 z"
   id="path3"
   style="fill:#282828;fill-opacity:1;stroke-width:0.766503" /><path
   fill="#000000"
   d="M 146.07379,10.728782 121.69915,82.001169 60.210902,57.749326 64.809943,109.57075 5.5958557,112.76 57.180751,153.2279 2.903089,194.10647 l 74.296119,16.21271 -38.811519,77.3996 76.399471,-18.19645 -2.31133,68.41507 72.30811,-50.52789 30.97244,57.46672 31.09162,-63.15588 55.28295,25.02097 1.73871,-46.97132 81.33568,13.26605 -41.14089,-52.95715 61.67978,-5.09448 -52.74587,-41.85743 44.37259,-21.96789 -49.75923,-20.83487 19.13291,-38.364138 -42.40369,4.811115 1.76581,-62.053968 -65.79011,42.60846 -9.95763,-65.400935 -54.32981,65.002065 -49.95462,-66.19831 z M 98.794797,136.30344 C 180.98135,111.00185 253.8139,117.03263 323.73525,137.16055 l -134.03864,55.21693 -90.901044,-56.0743 z m -8.824584,10.68204 56.558347,34.86834 -46.829877,42.66394 -9.727692,-77.53254 z m 69.117187,42.61771 25.23865,15.57346 3.78187,2.33674 4.18964,-1.73278 36.2137,-14.92654 48.8388,44.00921 C 231.05615,226.46092 169.82371,221.5888 108.2604,235.87589 l 50.82667,-46.27335 z m 169.94077,-40.17504 -34.12997,82.22005 -51.89527,-46.75321 86.02602,-35.4671 z"
   id="path1-1"
   style="fill:#700000;fill-opacity:1;stroke-width:0.758769" /><path
   fill="#d19b61"
   d="m 286.98462,278.43649 v 209.71534 c 0,14.2926 23.96104,25.87966 53.51833,25.87966 29.55728,0 53.51836,-11.58706 53.51836,-25.87966 V 278.43649 Z"
   id="path1"
   style="fill:#483521;fill-opacity:1;stroke-width:1.05099" /><path
   id="path2"
   style="fill:#282828;fill-opacity:1;stroke-width:0.766502"
   d="m 179.4676,70.726275 0.58677,1.254293 c 14.58458,0.06119 29.20288,2.441712 41.41302,7.107657 24.93747,9.529515 43.76517,27.263775 51.08703,48.121595 1.87796,5.34974 1.89006,5.81066 2.15093,76.97944 0.17653,48.15708 0.2154,63.68023 -0.30974,69.25701 l 3.07496,6.56714 h 43.78078 91.6586 91.66032 c 3.50381,0 6.34266,-2.14949 6.34266,-4.80096 V 149.70892 c 0,-0.33142 -0.0446,-0.65497 -0.12906,-0.96773 0.0846,-1.26972 0.12906,-2.54749 0.12906,-3.83321 0,-40.96925 -43.87767,-74.181705 -98.00298,-74.181705 z" /><path
   fill="#ff473e"
   d="M 397.08872,2.568006 H 359.2905 c -12.18602,0 -22.42205,9.444211 -25.30444,22.215868 -0.92197,2.226888 -1.43987,4.70996 -1.43987,7.33143 V 151.99397 c 0,9.55832 6.84807,17.30641 15.29612,17.30641 8.44802,0 15.29613,-7.74809 15.29613,-17.30641 V 61.663339 h 33.95028 c 14.42295,0 26.11579,-13.228815 26.11579,-29.547303 0,-16.31848 -11.69284,-29.54803 -26.11579,-29.54803 z"
   id="path4"
   style="fill:#5f1a17;fill-opacity:1;stroke-width:0.692086" />

<path
   style="fill:#000000;fill-opacity:0"
   d="m 153.5,482.89243 c -35.29777,-6.30107 -63.558471,-27.48908 -72.839485,-54.61024 -2.109005,-6.16297 -2.155364,-7.6345 -2.442922,-77.54258 l -0.29312,-71.2604 2.787764,-1.18298 c 1.568395,-0.66554 9.515895,-1.35745 18.169859,-1.58186 l 15.382094,-0.39887 -0.64474,16.34225 c -0.35461,8.98824 -0.92476,23.04383 -1.26701,31.23465 -0.52367,12.53282 -0.40284,14.76323 0.76265,14.07716 0.7617,-0.44837 16.00991,-11.01281 33.88491,-23.47651 17.875,-12.46371 33.68187,-23.42624 35.12639,-24.36118 l 2.62638,-1.6999 13.81282,25.78402 c 7.59704,14.1812 14.61462,27.11911 15.59461,28.75089 l 1.7818,2.96687 15.53646,-31.68189 c 13.45897,-27.44545 15.78075,-31.58628 17.3633,-30.96687 1.00476,0.39325 6.84092,2.96501 12.96926,5.71501 l 11.14243,5 0.008,62 c 0.01,69.43743 0.0519,68.93712 -6.98758,82.38596 -11.69546,22.34387 -37.59031,39.13092 -68.77634,44.58615 -10.83465,1.89525 -32.85969,1.85509 -43.69802,-0.0797 z"
   id="path6" /><path
   style="fill:#000000;fill-opacity:0"
   d="m 153.5,482.89243 c -35.29777,-6.30107 -63.558471,-27.48908 -72.839485,-54.61024 -2.109005,-6.16297 -2.155364,-7.6345 -2.442922,-77.54258 l -0.29312,-71.2604 2.787764,-1.18298 c 1.568395,-0.66554 9.515895,-1.35745 18.169859,-1.58186 l 15.382094,-0.39887 -0.64474,16.34225 c -0.35461,8.98824 -0.92476,23.04383 -1.26701,31.23465 -0.52367,12.53282 -0.40284,14.76323 0.76265,14.07716 0.7617,-0.44837 16.00991,-11.01281 33.88491,-23.47651 17.875,-12.46371 33.68187,-23.42624 35.12639,-24.36118 l 2.62638,-1.6999 13.81282,25.78402 c 7.59704,14.1812 14.61462,27.11911 15.59461,28.75089 l 1.7818,2.96687 15.53646,-31.68189 c 13.45897,-27.44545 15.78075,-31.58628 17.3633,-30.96687 1.00476,0.39325 6.84092,2.96501 12.96926,5.71501 l 11.14243,5 0.008,62 c 0.01,69.43743 0.0519,68.93712 -6.98758,82.38596 -11.69546,22.34387 -37.59031,39.13092 -68.77634,44.58615 -10.83465,1.89525 -32.85969,1.85509 -43.69802,-0.0797 z"
   id="path7" /><path
   style="fill:#000000;fill-opacity:0"
   d="m 153.5,482.89243 c -35.29777,-6.30107 -63.558471,-27.48908 -72.839485,-54.61024 -2.109005,-6.16297 -2.155364,-7.6345 -2.442922,-77.54258 l -0.29312,-71.2604 2.787764,-1.18298 c 1.568395,-0.66554 9.515895,-1.35745 18.169859,-1.58186 l 15.382094,-0.39887 -0.64474,16.34225 c -0.35461,8.98824 -0.92476,23.04383 -1.26701,31.23465 -0.52367,12.53282 -0.40284,14.76323 0.76265,14.07716 0.7617,-0.44837 16.00991,-11.01281 33.88491,-23.47651 17.875,-12.46371 33.68187,-23.42624 35.12639,-24.36118 l 2.62638,-1.6999 13.81282,25.78402 c 7.59704,14.1812 14.61462,27.11911 15.59461,28.75089 l 1.7818,2.96687 15.53646,-31.68189 c 13.45897,-27.44545 15.78075,-31.58628 17.3633,-30.96687 1.00476,0.39325 6.84092,2.96501 12.96926,5.71501 l 11.14243,5 0.008,62 c 0.01,69.43743 0.0519,68.93712 -6.98758,82.38596 -11.69546,22.34387 -37.59031,39.13092 -68.77634,44.58615 -10.83465,1.89525 -32.85969,1.85509 -43.69802,-0.0797 z"
   id="path8" /><path
   style="fill:#000000;fill-opacity:0"
   d="m 153.5,482.89243 c -35.29777,-6.30107 -63.558471,-27.48908 -72.839485,-54.61024 -2.109005,-6.16297 -2.155364,-7.6345 -2.442922,-77.54258 l -0.29312,-71.2604 2.787764,-1.18298 c 1.568395,-0.66554 9.515895,-1.35745 18.169859,-1.58186 l 15.382094,-0.39887 -0.64474,16.34225 c -0.35461,8.98824 -0.92476,23.04383 -1.26701,31.23465 -0.52367,12.53282 -0.40284,14.76323 0.76265,14.07716 0.7617,-0.44837 16.00991,-11.01281 33.88491,-23.47651 17.875,-12.46371 33.68187,-23.42624 35.12639,-24.36118 l 2.62638,-1.6999 13.81282,25.78402 c 7.59704,14.1812 14.61462,27.11911 15.59461,28.75089 l 1.7818,2.96687 15.53646,-31.68189 c 13.45897,-27.44545 15.78075,-31.58628 17.3633,-30.96687 1.00476,0.39325 6.84092,2.96501 12.96926,5.71501 l 11.14243,5 0.008,62 c 0.01,69.43743 0.0519,68.93712 -6.98758,82.38596 -11.69546,22.34387 -37.59031,39.13092 -68.77634,44.58615 -10.83465,1.89525 -32.85969,1.85509 -43.69802,-0.0797 z"
   id="path9" /><path
   style="fill:#000000;fill-opacity:0"
   d="m 153.5,482.89243 c -35.29777,-6.30107 -63.558471,-27.48908 -72.839485,-54.61024 -2.109005,-6.16297 -2.155364,-7.6345 -2.442922,-77.54258 l -0.29312,-71.2604 2.787764,-1.18298 c 1.568395,-0.66554 9.515895,-1.35745 18.169859,-1.58186 l 15.382094,-0.39887 -0.64474,16.34225 c -0.35461,8.98824 -0.92476,23.04383 -1.26701,31.23465 -0.52367,12.53282 -0.40284,14.76323 0.76265,14.07716 0.7617,-0.44837 16.00991,-11.01281 33.88491,-23.47651 17.875,-12.46371 33.68187,-23.42624 35.12639,-24.36118 l 2.62638,-1.6999 13.81282,25.78402 c 7.59704,14.1812 14.61462,27.11911 15.59461,28.75089 l 1.7818,2.96687 15.53646,-31.68189 c 13.45897,-27.44545 15.78075,-31.58628 17.3633,-30.96687 1.00476,0.39325 6.84092,2.96501 12.96926,5.71501 l 11.14243,5 0.008,62 c 0.01,69.43743 0.0519,68.93712 -6.98758,82.38596 -11.69546,22.34387 -37.59031,39.13092 -68.77634,44.58615 -10.83465,1.89525 -32.85969,1.85509 -43.69802,-0.0797 z"
   id="path10" /><path
   style="fill:#000000;fill-opacity:0"
   d="m 153.5,482.89243 c -35.29777,-6.30107 -63.558471,-27.48908 -72.839485,-54.61024 -2.109005,-6.16297 -2.155364,-7.6345 -2.442922,-77.54258 l -0.29312,-71.2604 2.787764,-1.18298 c 1.568395,-0.66554 9.515895,-1.35745 18.169859,-1.58186 l 15.382094,-0.39887 -0.64474,16.34225 c -0.35461,8.98824 -0.92476,23.04383 -1.26701,31.23465 -0.52367,12.53282 -0.40284,14.76323 0.76265,14.07716 0.7617,-0.44837 16.00991,-11.01281 33.88491,-23.47651 17.875,-12.46371 33.68187,-23.42624 35.12639,-24.36118 l 2.62638,-1.6999 13.81282,25.78402 c 7.59704,14.1812 14.61462,27.11911 15.59461,28.75089 l 1.7818,2.96687 15.53646,-31.68189 c 13.45897,-27.44545 15.78075,-31.58628 17.3633,-30.96687 1.00476,0.39325 6.84092,2.96501 12.96926,5.71501 l 11.14243,5 0.008,62 c 0.01,69.43743 0.0519,68.93712 -6.98758,82.38596 -11.69546,22.34387 -37.59031,39.13092 -68.77634,44.58615 -10.83465,1.89525 -32.85969,1.85509 -43.69802,-0.0797 z"
   id="path11" /><path
   style="fill:#000000;fill-opacity:0"
   d="m 153.5,482.89243 c -35.29777,-6.30107 -63.558471,-27.48908 -72.839485,-54.61024 -2.109005,-6.16297 -2.155364,-7.6345 -2.442922,-77.54258 l -0.29312,-71.2604 2.787764,-1.18298 c 1.568395,-0.66554 9.515895,-1.35745 18.169859,-1.58186 l 15.382094,-0.39887 -0.64474,16.34225 c -0.35461,8.98824 -0.92476,23.04383 -1.26701,31.23465 -0.52367,12.53282 -0.40284,14.76323 0.76265,14.07716 0.7617,-0.44837 16.00991,-11.01281 33.88491,-23.47651 17.875,-12.46371 33.68187,-23.42624 35.12639,-24.36118 l 2.62638,-1.6999 13.81282,25.78402 c 7.59704,14.1812 14.61462,27.11911 15.59461,28.75089 l 1.7818,2.96687 15.53646,-31.68189 c 13.45897,-27.44545 15.78075,-31.58628 17.3633,-30.96687 1.00476,0.39325 6.84092,2.96501 12.96926,5.71501 l 11.14243,5 0.008,62 c 0.01,69.43743 0.0519,68.93712 -6.98758,82.38596 -11.69546,22.34387 -37.59031,39.13092 -68.77634,44.58615 -10.83465,1.89525 -32.85969,1.85509 -43.69802,-0.0797 z"
   id="path12" /></svg>
